<svg id="Layer_1" data-name="Layer 1" xmlns="http://www.w3.org/2000/svg" viewBox="0 0 963.49 271.75"><defs><style>.cls-1{font-size:125px;font-family:STHeitiTC-Light, Heiti TC;font-weight:300;}</style></defs><title>HouseWaves_Logo</title><path d="M186,582a21,21,0,0,1,20,20H186V582m-1-4a23,23,0,0,0-3,.19V606h27.81a23,23,0,0,0,.19-3,25,25,0,0,0-25-25Z" transform="translate(-182 -356)"/><path d="M186,557a46.07,46.07,0,0,1,45,45H214a29,29,0,0,0-28-28V557m-1-4c-1,0-2,0-3,.1v25.09a23,23,0,0,1,3-.19,25,25,0,0,1,25,25,23,23,0,0,1-.19,3H234.9c.07-1,.1-2,.1-3a50,50,0,0,0-50-50Z" transform="translate(-182 -356)"/><path d="M186,507a96.09,96.09,0,0,1,95,95H239a54.07,54.07,0,0,0-53-53V507m-1-4c-1,0-2,0-3,.05V553.1c1-.07,2-.1,3-.1a50,50,0,0,1,50,50c0,1,0,2-.1,3h50c0-1,.05-2,.05-3A100,100,0,0,0,185,503Z" transform="translate(-182 -356)"/><path d="M186.21,457.06A146,146,0,0,1,328,602H289A104.13,104.13,0,0,0,186,499V457.34l.21-.28m-2-4L182,456v47.05c1,0,2-.05,3-.05A100,100,0,0,1,285,603c0,1,0,2-.05,3h47q0-1.5,0-3A150,150,0,0,0,184.24,453Z" transform="translate(-182 -356)"/><path d="M220.86,410.85a194.34,194.34,0,0,1,58.63,22.08A196.35,196.35,0,0,1,328,472.23v81.56A154.25,154.25,0,0,0,192,449.32l28.85-38.47m-1.7-4.4L184.24,453A150,150,0,0,1,332,603V470.71a199.71,199.71,0,0,0-112.84-64.26Z" transform="translate(-182 -356)"/><path d="M257,362.67l71,94.66v3.19a203.69,203.69,0,0,0-101.85-56.73L257,362.67m0-6.67-37.84,50.45A199.71,199.71,0,0,1,332,470.71V456L257,356Z" transform="translate(-182 -356)"/><path d="M332,603q0,1.5,0,3h0v-3Z" transform="translate(-182 -356)"/><text class="cls-1" transform="translate(171 235.5)">Housewaves </text></svg>